<svg width="252" height="57" viewBox="0 0 252 57" fill="none" xmlns="http://www.w3.org/2000/svg">
<g clip-path="url(#clip0_36_94)">
<path fill-rule="evenodd" clip-rule="evenodd" d="M0.114616 0H92.9303V56.1013H0.114616V0Z" fill="#CC2229"/>
<path fill-rule="evenodd" clip-rule="evenodd" d="M0.114616 0H92.9303V18.8037H0.114616V0Z" fill="black"/>
<path fill-rule="evenodd" clip-rule="evenodd" d="M0.114613 37.6382H92.9303V56.0708H0.114613V37.6382Z" fill="#F2CA30" stroke="#F2CA30" stroke-width="5.33808" stroke-miterlimit="2.613"/>
</g>
<path d="M125.739 21.6902L121.755 32.9222H118.331L114.347 21.6902H117.259L120.043 30.1702L122.843 21.6902H125.739ZM130.946 33.0342C130.125 33.0342 129.389 32.9008 128.738 32.6342C128.088 32.3675 127.565 31.9728 127.17 31.4502C126.786 30.9275 126.584 30.2982 126.562 29.5622H129.474C129.517 29.9782 129.661 30.2982 129.906 30.5222C130.152 30.7355 130.472 30.8422 130.866 30.8422C131.272 30.8422 131.592 30.7515 131.826 30.5702C132.061 30.3782 132.178 30.1168 132.178 29.7862C132.178 29.5088 132.082 29.2795 131.89 29.0982C131.709 28.9168 131.48 28.7675 131.202 28.6502C130.936 28.5328 130.552 28.3995 130.05 28.2502C129.325 28.0262 128.733 27.8022 128.274 27.5782C127.816 27.3542 127.421 27.0235 127.09 26.5862C126.76 26.1488 126.594 25.5782 126.594 24.8742C126.594 23.8288 126.973 23.0128 127.73 22.4262C128.488 21.8288 129.474 21.5302 130.69 21.5302C131.928 21.5302 132.925 21.8288 133.682 22.4262C134.44 23.0128 134.845 23.8342 134.898 24.8902H131.938C131.917 24.5275 131.784 24.2448 131.538 24.0422C131.293 23.8288 130.978 23.7222 130.594 23.7222C130.264 23.7222 129.997 23.8128 129.794 23.9942C129.592 24.1648 129.49 24.4155 129.49 24.7462C129.49 25.1088 129.661 25.3915 130.002 25.5942C130.344 25.7968 130.877 26.0155 131.602 26.2502C132.328 26.4955 132.914 26.7302 133.362 26.9542C133.821 27.1782 134.216 27.5035 134.546 27.9302C134.877 28.3568 135.042 28.9062 135.042 29.5782C135.042 30.2182 134.877 30.7995 134.546 31.3222C134.226 31.8448 133.757 32.2608 133.138 32.5702C132.52 32.8795 131.789 33.0342 130.946 33.0342Z" fill="#161616"/>
<g clip-path="url(#clip1_36_94)">
<path fill-rule="evenodd" clip-rule="evenodd" d="M158.956 54.4222H189.97V0H158.956V54.4222Z" fill="#334094"/>
<path fill-rule="evenodd" clip-rule="evenodd" d="M189.97 54.4222H220.985V0H189.97V54.4222Z" fill="#F4F4F4"/>
<path fill-rule="evenodd" clip-rule="evenodd" d="M220.985 54.4222H252V0H220.985V54.4222Z" fill="#D61E34"/>
</g>
<defs>
<clipPath id="clip0_36_94">
<rect width="93.0445" height="56.1778" fill="white"/>
</clipPath>
<clipPath id="clip1_36_94">
<rect width="93.0445" height="54.4222" fill="white" transform="translate(158.956)"/>
</clipPath>
</defs>
</svg>
